<svg xmlns="http://www.w3.org/2000/svg" width="256" height="256" viewBox="0 0 256 256" role="img" aria-label="Hotel Management System">
  <defs>
    <linearGradient id="g" x1="0" y1="0" x2="1" y2="1">
      <stop offset="0" stop-color="#3C91E6"/>
      <stop offset="1" stop-color="#1D4ED8"/>
    </linearGradient>
  </defs>
  <rect x="16" y="16" width="224" height="224" rx="56" fill="url(#g)"/>
  <rect x="60" y="64" width="136" height="128" rx="16" fill="#ffffff" opacity="0.92"/>
  <rect x="84" y="92" width="24" height="24" rx="6" fill="#3C91E6"/>
  <rect x="120" y="92" width="24" height="24" rx="6" fill="#3C91E6"/>
  <rect x="156" y="92" width="24" height="24" rx="6" fill="#3C91E6"/>
  <rect x="84" y="128" width="24" height="24" rx="6" fill="#3C91E6"/>
  <rect x="120" y="128" width="24" height="24" rx="6" fill="#3C91E6"/>
  <rect x="156" y="128" width="24" height="24" rx="6" fill="#3C91E6"/>
  <rect x="116" y="164" width="24" height="28" rx="8" fill="#1D4ED8"/>
  <path d="M76 64c10-18 28-30 52-30s42 12 52 30" fill="none" stroke="#ffffff" stroke-width="10" stroke-linecap="round" opacity="0.85"/>
  <text x="128" y="224" text-anchor="middle" font-family="Poppins, Arial, sans-serif" font-size="18" fill="#ffffff" opacity="0.95">HMS</text>
</svg>
